<?xml version="1.0" encoding="UTF-8"?><svg id="Layer_2" xmlns="http://www.w3.org/2000/svg" viewBox="0 0 211.47 211.47"><defs><style>.cls-1{stroke-width:1.98px;}.cls-1,.cls-2,.cls-3,.cls-4,.cls-5,.cls-6,.cls-7,.cls-8,.cls-9,.cls-10,.cls-11,.cls-12,.cls-13,.cls-14,.cls-15,.cls-16,.cls-17,.cls-18,.cls-19,.cls-20,.cls-21,.cls-22,.cls-23{fill:#fff;stroke:#fff;stroke-linecap:round;}.cls-2{stroke-width:1.97px;}.cls-3{stroke-width:2.38px;}.cls-4{stroke-width:2.08px;}.cls-5{stroke-width:2.08px;}.cls-6{stroke-width:2.08px;}.cls-7{stroke-width:2.09px;}.cls-8{stroke-width:2.09px;}.cls-9{stroke-width:2.09px;}.cls-24{fill:#37515e;}.cls-10{stroke-width:2.08px;}.cls-11{stroke-width:2.08px;}.cls-12{stroke-width:2.08px;}.cls-13{stroke-width:2.08px;}.cls-14{stroke-width:2.08px;}.cls-15{stroke-width:2.08px;}.cls-16{stroke-width:2.08px;}.cls-17{stroke-width:2.08px;}.cls-18{stroke-width:2.34px;}.cls-19{stroke-width:2.34px;}.cls-20{stroke-width:2.33px;}.cls-21{stroke-width:2.33px;}.cls-22{stroke-width:2.33px;}.cls-23{stroke-width:2.32px;}</style></defs><g id="Layer_1-2"><rect class="cls-24" x="0" y="0" width="211.47" height="211.47" rx="25.3" ry="25.3"/><g><line class="cls-15" x1="170.86" y1="145.53" x2="170.86" y2="93.42"/><line class="cls-16" x1="170.41" y1="93.09" x2="145.48" y2="65.71"/><line class="cls-12" x1="144.9" y1="65.34" x2="128.41" y2="81.83"/><line class="cls-17" x1="145.3" y1="145.88" x2="145.3" y2="67.03"/><line class="cls-9" x1="150.93" y1="145.87" x2="150.93" y2="71.83"/><line class="cls-11" x1="156.12" y1="145.53" x2="156.12" y2="78.34"/><line class="cls-6" x1="161.16" y1="145.87" x2="161.16" y2="84.17"/><line class="cls-14" x1="166.07" y1="145.53" x2="166.07" y2="88.62"/><line class="cls-23" x1="135.33" y1="91.32" x2="135.33" y2="75.52"/><line class="cls-3" x1="131.15" y1="86.48" x2="131.15" y2="79.69"/><line class="cls-19" x1="137.06" y1="145.53" x2="137.06" y2="93.42"/><line class="cls-16" x1="136.56" y1="92.75" x2="111.64" y2="65.37"/><line class="cls-12" x1="111.06" y1="64.99" x2="94.57" y2="81.48"/><line class="cls-20" x1="45.34" y1="145.54" x2="45.34" y2="94.78"/><line class="cls-20" x1="105.82" y1="145.54" x2="105.82" y2="94.78"/><line class="cls-13" x1="105.3" y1="93.92" x2="75.61" y2="65.42"/><line class="cls-13" x1="74.88" y1="64.99" x2="45.78" y2="94.09"/><line class="cls-10" x1="51.02" y1="145.54" x2="51.02" y2="89.99"/><line class="cls-18" x1="75.04" y1="145.53" x2="75.04" y2="66.69"/><line class="cls-22" x1="100.17" y1="145.54" x2="100.17" y2="89.99"/><line class="cls-4" x1="68.07" y1="145.87" x2="68.07" y2="72.51"/><line class="cls-4" x1="81.62" y1="145.53" x2="81.62" y2="72.17"/><line class="cls-8" x1="87.68" y1="145.53" x2="87.68" y2="77.66"/><line class="cls-5" x1="62.07" y1="145.53" x2="62.07" y2="78.34"/><line class="cls-21" x1="94.02" y1="145.54" x2="94.02" y2="83.83"/><line class="cls-7" x1="56.63" y1="145.87" x2="56.63" y2="83.49"/><line class="cls-2" x1="140.05" y1="145.57" x2="140.05" y2="70.33"/><line class="cls-1" x1="14" y1="146.48" x2="197.47" y2="146.48"/></g></g></svg>